<svg width="428" height="430" viewBox="0 0 428 430" fill="none" xmlns="http://www.w3.org/2000/svg">
<path d="M70.0704 274.65C70.0704 274.65 66.983 259.092 71.412 250.862C75.841 242.632 89.128 251.498 87.8638 240.112C86.5996 228.726 77.7416 176.85 104.943 164.2C132.145 151.549 172.634 167.356 184.657 132.56C196.68 97.7648 195.407 72.4636 235.896 71.8358C276.384 71.208 351.669 169.257 356.098 199.623C360.527 229.99 316.693 256.538 315.48 272.362C314.267 288.186 340.876 324.882 332.68 338.169C324.484 351.456 322.558 354.612 322.558 354.612L70.0704 274.65Z" fill="#C6FF00"/>
<path opacity="0.7" d="M70.0704 274.65C70.0704 274.65 66.983 259.092 71.412 250.862C75.841 242.632 89.128 251.498 87.8638 240.112C86.5996 228.726 77.7416 176.85 104.943 164.2C132.145 151.549 172.634 167.356 184.657 132.56C196.68 97.7648 195.407 72.4636 235.896 71.8358C276.384 71.208 351.669 169.257 356.098 199.623C360.527 229.99 316.693 256.538 315.48 272.362C314.267 288.186 340.876 324.882 332.68 338.169C324.484 351.456 322.558 354.612 322.558 354.612L70.0704 274.65Z" fill="white"/>
<path d="M317.2 353.125L329.128 356.874" stroke="#263238" stroke-linecap="round" stroke-linejoin="round"/>
<path d="M87.2789 280.927L308.574 350.415" stroke="#263238" stroke-linecap="round" stroke-linejoin="round"/>
<path d="M197.651 362.206L224.509 332.476L139.687 303.812L115.513 333.542L197.651 362.206Z" fill="#C6FF00" stroke="#263238" stroke-linecap="round" stroke-linejoin="round"/>
<path d="M195.089 354.303L213.123 334.849L148.597 312.068L130.563 332.949L195.089 354.303Z" fill="#263238" stroke="#263238" stroke-linecap="round" stroke-linejoin="round"/>
<path d="M185.62 222.052C185.62 222.052 172.307 225.578 166.7 230.876C161.093 236.173 158.513 245.96 158.513 245.96C158.513 245.96 150.971 252.376 147.436 254.302C144.559 255.754 142 257.764 139.907 260.215C137.815 262.666 136.232 265.509 135.25 268.578C132.36 277.247 128.834 296.82 128.834 296.82L137.813 301C137.813 301 137.976 295.84 146 288.005C154.024 280.171 158.986 266.824 159.631 266.505C160.276 266.187 174.388 256.882 174.388 256.882C174.388 256.882 185.302 264.416 197.651 266.505C210.001 268.595 223.641 266.342 223.641 266.342L219.788 278.219C219.788 278.219 210.964 282.063 208.72 286.715C206.475 291.368 195.888 309.015 195.888 309.015L203.431 315.113C209.392 310.676 215.722 306.758 222.351 303.399C233.419 297.784 236.111 293.776 239.353 287.197C242.295 280.647 244.761 273.892 246.732 266.987C246.895 265.86 250.103 262.979 250.584 256.074L251.066 249.194L267.905 234.118C277.148 230.024 285.45 224.073 292.294 216.634C303.363 204.439 305.126 198.505 306.252 187.592C307.379 176.678 311.868 133.532 312.023 132.887C312.178 132.242 313.631 129.043 315.557 128.716C317.484 128.389 328.07 137.703 329.515 138.666C330.96 139.63 333.815 140.111 334.159 137.058C334.503 134.005 331.915 126.472 323.736 118.293C315.557 110.114 309.615 108.833 307.697 110.914C305.779 112.995 307.052 117.485 305.771 124.064C304.489 130.643 296.465 154.387 292.449 165.619C288.433 176.85 289.723 192.09 289.723 192.09C286.427 193.284 283.299 194.9 280.418 196.897C276.574 199.787 270.64 203.777 270.64 203.777L269.04 202.96C269.04 202.96 278.027 193.973 280.753 188.839C283.479 183.705 284.279 183.386 282.834 180.342C281.39 177.298 269.685 162.54 264.551 155.952C259.417 149.365 253.156 138.305 251.84 135.097C250.667 132.341 250.608 129.236 251.677 126.437C252.64 124.193 261.627 119.703 261.79 112.806C261.954 105.909 257.49 107.827 253.285 109.272C249.079 110.716 237.882 121.63 235.319 128.527C232.757 135.424 234.993 137.669 239.49 141.84C243.988 146.011 249.466 154.516 252.356 162.54C255.246 170.564 258.935 178.261 264.869 180.351C264.869 180.351 255.409 184.84 249.148 189.329C242.887 193.818 239.843 195.908 239.843 195.908C239.843 195.908 231.338 198.316 228.13 202.487C226.414 204.629 224.91 206.933 223.641 209.367C223.641 209.367 194.607 214.346 185.62 222.052Z" fill="white"/>
<path opacity="0.2" d="M262.375 237.265L248.675 243.621C248.675 243.621 249.337 253.984 245.665 259.333C241.993 264.682 240.651 266.351 240.651 266.351C240.651 266.351 240.316 274.374 237.977 279.388C235.638 284.402 231.957 286.07 231.957 286.07C231.962 287.951 231.578 289.812 230.831 291.537C230.084 293.263 228.989 294.815 227.614 296.098C222.935 300.45 211.274 307.467 203.878 312.146C203.112 312.636 202.381 313.152 201.676 313.685L203.396 315.095C209.358 310.659 215.687 306.74 222.316 303.382C233.384 297.766 236.076 293.759 239.318 287.18C242.261 280.629 244.727 273.875 246.697 266.97C246.861 265.843 250.068 262.962 250.55 256.056L251.032 249.176L263.347 238.151L262.375 237.265Z" fill="black"/>
<path opacity="0.2" d="M197.66 266.488C208.84 268.38 221.104 266.712 223.305 266.385C224.01 264.536 224.458 262.463 223.305 261.672C221.301 260.331 221.972 256.658 221.972 256.658C221.972 256.658 220.304 260.331 206.931 260.331C193.558 260.331 175.506 248.97 175.506 248.97C175.506 248.97 174.173 252.978 170.493 254.319C166.812 255.661 156.784 261.337 156.784 261.337C156.784 261.337 156.449 270.694 149.767 276.378C143.084 282.063 135.379 295.298 135.379 295.298L134.166 299.28L137.813 301C137.813 301 137.976 295.84 146 288.005C154.024 280.171 158.986 266.824 159.631 266.505C160.276 266.187 174.388 256.882 174.388 256.882C174.388 256.882 185.302 264.398 197.66 266.488Z" fill="black"/>
<path d="M185.62 222.052C185.62 222.052 172.307 225.578 166.7 230.876C161.093 236.173 158.513 245.96 158.513 245.96C158.513 245.96 150.971 252.376 147.436 254.302C144.559 255.754 142 257.764 139.907 260.215C137.815 262.666 136.232 265.509 135.25 268.578C132.36 277.247 128.834 296.82 128.834 296.82L137.813 301C137.813 301 137.976 295.84 146 288.005C154.024 280.171 158.986 266.824 159.631 266.505C160.276 266.187 174.388 256.882 174.388 256.882C174.388 256.882 185.302 264.416 197.651 266.505C210.001 268.595 223.641 266.342 223.641 266.342L219.788 278.219C219.788 278.219 210.964 282.063 208.72 286.715C206.475 291.368 195.888 309.015 195.888 309.015L203.431 315.113C209.392 310.676 215.722 306.758 222.351 303.399C233.419 297.784 236.111 293.776 239.353 287.197C242.295 280.647 244.761 273.892 246.732 266.987C246.895 265.86 250.103 262.979 250.584 256.074L251.066 249.194L267.905 234.118C277.148 230.024 285.45 224.073 292.294 216.634C303.363 204.439 305.126 198.505 306.252 187.592C307.379 176.678 311.868 133.532 312.023 132.887C312.178 132.242 313.631 129.043 315.557 128.716C317.484 128.389 328.07 137.703 329.515 138.666C330.96 139.63 333.815 140.111 334.159 137.058C334.503 134.005 331.915 126.472 323.736 118.293C315.557 110.114 309.615 108.833 307.697 110.914C305.779 112.995 307.052 117.485 305.771 124.064C304.489 130.643 296.465 154.387 292.449 165.619C288.433 176.85 289.723 192.09 289.723 192.09C286.427 193.284 283.299 194.9 280.418 196.897C276.574 199.787 270.64 203.777 270.64 203.777L269.04 202.96C269.04 202.96 278.027 193.973 280.753 188.839C283.479 183.705 284.279 183.386 282.834 180.342C281.39 177.298 269.685 162.54 264.551 155.952C259.417 149.365 253.156 138.305 251.84 135.097C250.667 132.341 250.608 129.236 251.677 126.437C252.64 124.193 261.627 119.703 261.79 112.806C261.954 105.909 257.49 107.827 253.285 109.272C249.079 110.716 237.882 121.63 235.319 128.527C232.757 135.424 234.993 137.669 239.49 141.84C243.988 146.011 249.466 154.516 252.356 162.54C255.246 170.564 258.935 178.261 264.869 180.351C264.869 180.351 255.409 184.84 249.148 189.329C242.887 193.818 239.843 195.908 239.843 195.908C239.843 195.908 231.338 198.316 228.13 202.487C226.414 204.629 224.91 206.933 223.641 209.367C223.641 209.367 194.607 214.346 185.62 222.052Z" stroke="#263238" stroke-linecap="round" stroke-linejoin="round"/>
<path d="M233.78 203.76C231.759 203.76 229.256 203.949 226.9 204.19C225.687 205.82 224.609 207.546 223.675 209.35C223.675 209.35 194.607 214.346 185.62 222.052C185.62 222.052 172.307 225.578 166.7 230.876C161.093 236.173 158.513 245.96 158.513 245.96C158.513 245.96 154.514 249.357 150.979 251.98C153.757 251.782 158.427 251.894 160.912 254.491C163.398 257.088 163.26 261.75 162.899 264.433C167.25 261.603 174.388 256.899 174.388 256.899C174.388 256.899 185.302 264.433 197.651 266.523C210.001 268.612 223.641 266.359 223.641 266.359L223.021 268.268C225.335 266.548 230.331 263.968 237.598 266.841C239.238 267.423 240.72 268.38 241.925 269.636C243.129 270.891 244.025 272.411 244.539 274.073C245.777 270.436 246.671 267.52 246.74 267.004C246.904 265.878 250.111 262.997 250.593 256.091L251.075 249.211L265.265 236.5C265.566 233.413 265.179 228.665 262.306 222.095C256.69 209.212 238.716 203.76 233.78 203.76Z" fill="#C6FF00"/>
<path opacity="0.2" d="M197.66 266.488C208.84 268.38 221.104 266.712 223.305 266.385C224.01 264.536 224.458 262.463 223.305 261.672C221.301 260.331 221.972 256.658 221.972 256.658C221.972 256.658 220.304 260.331 206.931 260.331C193.558 260.331 175.506 248.97 175.506 248.97C175.506 248.97 174.173 252.978 170.493 254.319C166.812 255.661 156.784 261.337 156.784 261.337C156.784 261.337 156.449 270.694 149.767 276.378C143.084 282.063 135.379 295.298 135.379 295.298L134.166 299.28L137.813 301C137.813 301 137.976 295.84 146 288.005C154.024 280.171 158.986 266.824 159.631 266.505C160.276 266.187 174.388 256.882 174.388 256.882C174.388 256.882 185.302 264.398 197.66 266.488Z" fill="black"/>
<path opacity="0.2" d="M262.375 237.265L248.675 243.621C248.675 243.621 249.337 253.984 245.665 259.333C241.993 264.682 240.651 266.351 240.651 266.351C240.651 266.351 240.316 274.374 237.977 279.388C235.638 284.402 231.957 286.07 231.957 286.07C231.962 287.951 231.578 289.812 230.831 291.537C230.084 293.263 228.989 294.815 227.614 296.098C222.935 300.45 211.274 307.467 203.878 312.146C203.112 312.636 202.381 313.152 201.676 313.685L203.396 315.095C209.358 310.659 215.687 306.74 222.316 303.382C233.384 297.766 236.076 293.759 239.318 287.18C242.261 280.629 244.727 273.875 246.697 266.97C246.861 265.843 250.068 262.962 250.55 256.056L251.032 249.176L263.347 238.151L262.375 237.265Z" fill="black"/>
<path d="M233.78 203.76C231.759 203.76 229.256 203.949 226.9 204.19C225.687 205.82 224.609 207.546 223.675 209.35C223.675 209.35 194.607 214.346 185.62 222.052C185.62 222.052 172.307 225.578 166.7 230.876C161.093 236.173 158.513 245.96 158.513 245.96C158.513 245.96 154.514 249.357 150.979 251.98C153.757 251.782 158.427 251.894 160.912 254.491C163.398 257.088 163.26 261.75 162.899 264.433C167.25 261.603 174.388 256.899 174.388 256.899C174.388 256.899 185.302 264.433 197.651 266.523C210.001 268.612 223.641 266.359 223.641 266.359L223.021 268.268C225.335 266.548 230.331 263.968 237.598 266.841C239.238 267.423 240.72 268.38 241.925 269.636C243.129 270.891 244.025 272.411 244.539 274.073C245.777 270.436 246.671 267.52 246.74 267.004C246.904 265.878 250.111 262.997 250.593 256.091L251.075 249.211L265.265 236.5C265.566 233.413 265.179 228.665 262.306 222.095C256.69 209.212 238.716 203.76 233.78 203.76Z" stroke="#263238" stroke-linecap="round" stroke-linejoin="round"/>
<path d="M229.093 245.47C225.915 247.64 223.635 250.893 222.677 254.62C221.078 260.872 222.841 264.562 222.841 264.562" stroke="#263238" stroke-linecap="round" stroke-linejoin="round"/>
<path d="M179.359 219.609C179.359 219.609 172.161 222.843 169.641 221.407C167.121 219.971 167.483 213.847 170.501 210.425C173.52 207.002 179.505 206.641 177.527 206.125C175.549 205.609 171.765 204.499 175.902 201.266C180.039 198.032 192.104 195.142 202.012 198.023C211.919 200.904 215.514 206.305 216.227 208.825C216.602 209.94 216.844 211.094 216.95 212.265C216.95 212.265 221.25 210.468 221.989 211.913C222.203 212.286 222.283 212.72 222.217 213.145C222.152 213.57 221.944 213.96 221.628 214.252C221.628 214.252 223.254 215.869 223.606 219.653C223.959 223.437 221.448 226.851 220.011 228.253C218.575 229.654 216.408 230.059 213.888 227.9C211.368 225.741 209.932 218.354 208.307 218.354C206.681 218.354 199.844 218.715 199.707 217.494L199.535 216.238L181.165 220.917L179.359 219.609Z" fill="#263238" stroke="#263238" stroke-linecap="round" stroke-linejoin="round"/>
<path d="M216.907 235.365C216.907 235.365 218.188 250.767 213.854 258.464C209.519 266.161 201.659 260.709 199.896 258.946C198.133 257.183 208.083 249.804 210.328 244.025C212.572 238.246 216.098 232.2 216.907 235.365Z" fill="white"/>
<path opacity="0.2" d="M216.907 235.365C216.907 235.365 218.188 250.767 213.854 258.464C209.519 266.161 201.659 260.709 199.896 258.946C198.133 257.183 208.083 249.804 210.328 244.025C212.572 238.246 216.098 232.2 216.907 235.365Z" fill="black"/>
<path d="M216.907 235.365C216.907 235.365 218.188 250.767 213.854 258.464C209.519 266.161 201.659 260.709 199.896 258.946C198.133 257.183 208.083 249.804 210.328 244.025C212.572 238.246 216.098 232.2 216.907 235.365Z" stroke="#263238" stroke-linecap="round" stroke-linejoin="round"/>
<path d="M179.359 219.609C179.833 228.147 181.53 236.572 184.399 244.627C189.077 257.407 196.998 261.732 200.421 261.913C203.843 262.093 210.319 255.609 213.2 249.486C215.132 245.226 216.758 240.835 218.068 236.345C218.068 236.345 222.204 234.909 223.288 231.125C224.372 227.341 224.148 223.927 221.301 223.565C218.455 223.204 217.165 227.349 217.165 227.349C214.774 225.61 213.006 223.146 212.125 220.323C210.68 215.645 213.561 212.041 212.125 212.944C210.689 213.847 207.825 216.729 206.363 216.187C204.901 215.645 207.223 211.508 207.223 211.508C207.223 211.508 183.9 217.623 179.359 219.609Z" fill="white" stroke="#263238" stroke-linecap="round" stroke-linejoin="round"/>
<path d="M209.967 229.147L217.887 226.085" stroke="#263238" stroke-linecap="round" stroke-linejoin="round"/>
<path d="M191.244 230.05L175.403 227.169C175.403 227.169 175.584 232.209 178.104 235.09C180.623 237.971 185.844 238.332 187.822 237.609C189.8 236.887 189.438 231.306 191.606 231.847C193.773 232.389 193.403 234.728 194.306 236.887C195.209 239.046 196.103 238.865 200.059 239.407C204.015 239.949 207.799 239.587 209.244 237.609C210.689 235.631 211.403 229.508 209.967 229.147C208.53 228.786 203.663 229.508 198.443 229.689C193.222 229.869 191.244 230.05 191.244 230.05Z" fill="white"/>
<path d="M200.059 239.407C204.024 239.949 207.799 239.588 209.244 237.61C210.285 236.173 210.964 232.579 210.689 230.558L195.209 238.298C195.992 239.003 197.264 239.029 200.059 239.407Z" fill="#C6FF00"/>
<path d="M187.822 237.609C189.8 236.887 189.438 231.306 191.606 231.847C192.887 232.174 193.283 233.137 193.584 234.324L199.036 229.663H198.443C196.895 229.715 195.63 229.766 194.624 229.818L178.955 235.838C180.222 236.746 181.668 237.374 183.197 237.679C184.726 237.985 186.303 237.961 187.822 237.609Z" fill="#C6FF00"/>
<path d="M191.244 230.05L175.403 227.169C175.403 227.169 175.584 232.209 178.104 235.09C180.623 237.971 185.844 238.332 187.822 237.609C189.8 236.887 189.438 231.306 191.606 231.847C193.773 232.389 193.403 234.728 194.306 236.887C195.209 239.046 196.103 238.865 200.059 239.407C204.015 239.949 207.799 239.587 209.244 237.609C210.689 235.631 211.403 229.508 209.967 229.147C208.53 228.786 203.663 229.508 198.443 229.689C193.222 229.869 191.244 230.05 191.244 230.05Z" stroke="#263238" stroke-linecap="round" stroke-linejoin="round"/>
<path d="M190.161 235.812C190.161 235.812 189.98 240.49 189.98 243.371C189.98 246.252 191.064 246.252 193.042 246.072C194.144 246.004 195.204 245.629 196.103 244.988" stroke="#263238" stroke-linecap="round" stroke-linejoin="round"/>
<path d="M196.465 251.12C196.465 251.12 200.24 246.081 204.024 246.614C207.808 247.147 207.799 250.578 205.821 251.843C203.843 253.107 198.804 253.821 197.54 253.459C196.275 253.098 195.742 251.834 196.465 251.12Z" stroke="#263238" stroke-linecap="round" stroke-linejoin="round"/>
<path d="M206.002 247.869C206.002 247.869 201.324 251.834 196.645 252.006" stroke="#263238" stroke-linecap="round" stroke-linejoin="round"/>
<path d="M192.139 225.905C192.139 225.905 194.478 228.425 195.381 227.711C196.284 226.997 199.526 223.746 203.302 223.411C207.077 223.075 207.602 223.772 207.086 223.05C206.57 222.327 204.024 221.072 200.962 221.433C197.901 221.794 195.742 224.873 194.659 225.389C193.861 225.726 193.005 225.902 192.139 225.905Z" fill="#263238" stroke="#263238" stroke-linecap="round" stroke-linejoin="round"/>
<path d="M188.002 225.191C188.002 225.191 187.641 226.627 187.099 226.808C186.557 226.988 186.377 226.988 183.324 226.085C180.271 225.182 179.359 225.01 179.359 225.01C179.359 225.01 179.179 223.565 181.337 223.385C183.496 223.204 186.205 224.83 186.205 224.83C186.205 224.83 187.46 225.724 188.002 225.191Z" fill="#263238" stroke="#263238" stroke-linecap="round" stroke-linejoin="round"/>
<path d="M209.064 200.887C209.064 200.887 217.165 204.327 217.887 217.804L219.504 217.623C219.505 213.479 218.647 209.379 216.984 205.583C214.284 199.804 209.064 200.887 209.064 200.887Z" fill="white" stroke="#263238" stroke-linecap="round" stroke-linejoin="round"/>
<path d="M216.133 223.462C215.536 223.447 214.962 223.226 214.51 222.835C214.058 222.445 213.756 221.91 213.654 221.321C213.553 220.733 213.659 220.127 213.954 219.608C214.249 219.089 214.715 218.688 215.273 218.474L222.849 215.765C223.468 215.618 224.12 215.704 224.679 216.007C225.238 216.311 225.666 216.81 225.879 217.41C226.092 218.009 226.077 218.666 225.835 219.255C225.593 219.843 225.142 220.322 224.569 220.598L216.993 223.307C216.717 223.409 216.426 223.461 216.133 223.462Z" fill="white" stroke="#263238" stroke-miterlimit="10"/>
<path d="M216.907 220.573C217.32 221.682 216.993 222.835 216.167 223.153C215.342 223.471 214.335 222.817 213.914 221.699C213.492 220.581 213.828 219.438 214.653 219.119C215.479 218.801 216.485 219.463 216.907 220.573Z" fill="white" stroke="#263238" stroke-linecap="round" stroke-linejoin="round"/>
<path d="M216.004 234.9C216.004 235.357 215.823 235.794 215.5 236.117C215.177 236.439 214.74 236.62 214.284 236.62C213.828 236.62 213.39 236.439 213.067 236.117C212.745 235.794 212.564 235.357 212.564 234.9C212.564 233.946 214.284 230.145 214.284 230.145C214.284 230.145 216.004 233.92 216.004 234.9Z" stroke="#263238" stroke-linecap="round" stroke-linejoin="round"/>
<path d="M307.74 110.88C305.814 112.961 307.095 117.45 305.814 124.029C304.532 130.608 296.508 154.353 292.492 165.584C288.476 176.816 289.766 192.055 289.766 192.055C286.47 193.25 283.342 194.866 280.461 196.863C276.617 199.752 270.683 203.743 270.683 203.743L269.04 202.96C269.04 202.96 278.027 193.973 280.753 188.839C283.479 183.705 284.279 183.386 282.834 180.342C281.39 177.298 269.685 162.54 264.551 155.952C259.417 149.365 253.156 138.305 251.84 135.097C250.667 132.341 250.608 129.236 251.677 126.437C252.64 124.193 261.627 119.703 261.79 112.806C261.954 105.909 257.49 107.827 253.285 109.272C249.079 110.716 237.882 121.63 235.319 128.527C232.757 135.424 234.993 137.669 239.49 141.84C243.988 146.011 249.466 154.516 252.356 162.54C255.246 170.564 258.935 178.261 264.869 180.351C264.869 180.351 255.409 184.84 249.148 189.329C242.887 193.818 239.843 195.908 239.843 195.908C239.843 195.908 231.338 198.316 228.13 202.487C226.732 204.275 225.459 206.157 224.32 208.12C227.984 206.778 236.859 204.723 247.222 210.82C260.079 218.38 262.805 230.927 262.805 238.659L267.913 234.083C277.156 229.99 285.458 224.038 292.303 216.6C303.371 204.405 305.134 198.471 306.261 187.557C307.387 176.644 311.877 133.498 312.031 132.853C312.186 132.208 313.64 129.009 315.566 128.682C317.492 128.355 328.079 137.669 329.524 138.632C330.969 139.595 333.824 140.077 334.168 137.024C334.512 133.971 331.923 126.437 323.745 118.259C315.566 110.08 309.623 108.79 307.74 110.88Z" fill="#263238" stroke="#263238" stroke-linecap="round" stroke-linejoin="round"/>
<path d="M252.193 197.181C252.193 197.181 269.203 199.434 278.182 213.228" stroke="white" stroke-linecap="round" stroke-linejoin="round"/>
<path d="M334.168 137.024C334.495 133.979 331.923 126.437 323.745 118.259C315.566 110.08 309.623 108.799 307.706 110.88C305.788 112.961 307.061 117.45 305.779 124.029C305.607 124.889 305.306 126.11 304.919 127.538C306.804 127.28 308.716 127.747 310.268 128.845C311.243 129.468 312.113 130.24 312.848 131.133C313.485 130.058 314.439 128.871 315.575 128.682C317.492 128.364 328.088 137.669 329.532 138.632C330.977 139.595 333.85 140.077 334.168 137.024Z" fill="#263238" stroke="#263238" stroke-linecap="round" stroke-linejoin="round"/>
<path d="M239.525 141.84C240.503 142.765 241.422 143.75 242.277 144.79C244.548 144.805 246.78 144.205 248.737 143.053C250.693 141.9 252.301 140.239 253.388 138.245C252.691 136.912 252.158 135.803 251.874 135.097C250.701 132.341 250.643 129.236 251.711 126.437C252.674 124.193 261.661 119.703 261.825 112.806C261.988 105.909 257.525 107.827 253.319 109.272C249.114 110.716 237.917 121.63 235.354 128.527C232.791 135.424 235.027 137.669 239.525 141.84Z" fill="#263238" stroke="#263238" stroke-linecap="round" stroke-linejoin="round"/>
<path d="M253.319 109.272C249.148 110.716 237.917 121.63 235.354 128.527C233.333 133.936 234.296 136.491 236.971 139.346C238.19 139.019 239.331 138.449 240.325 137.669C244.177 134.779 245.777 129.645 248.185 127.882C249.552 126.876 252.012 125.302 254.506 123.625C257.482 121.105 261.713 117.519 261.825 112.806C261.979 105.9 257.49 107.827 253.319 109.272Z" fill="white" stroke="#263238" stroke-linecap="round" stroke-linejoin="round"/>
<path d="M253.319 109.272C249.148 110.716 237.917 121.63 235.354 128.527C233.918 132.371 233.986 134.771 235.104 136.869C235.966 137.023 236.851 136.988 237.698 136.765C238.544 136.542 239.332 136.138 240.006 135.579C245.295 131.735 243.369 127.719 248.022 125.474C252.824 123.119 257.208 119.993 260.999 116.22C261.515 115.144 261.807 113.973 261.859 112.78C261.979 105.9 257.49 107.827 253.319 109.272Z" fill="white" stroke="#263238" stroke-linecap="round" stroke-linejoin="round"/>
<path d="M334.168 137.024C334.495 133.979 331.923 126.437 323.745 118.259C315.566 110.08 309.623 108.799 307.706 110.88C307.138 111.565 306.788 112.403 306.699 113.288C308.213 112.746 310.759 112.428 314.121 113.924C319.737 116.504 329.997 129.327 331.605 132.844C332.542 134.908 332.276 137.445 332.052 139.337C333.084 139.32 333.996 138.666 334.168 137.024Z" fill="white" stroke="#263238" stroke-linecap="round" stroke-linejoin="round"/>
<path d="M270.046 226.971L262.538 233.06C262.465 233.122 262.406 233.2 262.368 233.288C262.329 233.376 262.311 233.471 262.315 233.567L262.573 240.207C262.58 240.321 262.618 240.431 262.683 240.526C262.748 240.62 262.838 240.695 262.942 240.742C263.047 240.789 263.162 240.806 263.276 240.792C263.39 240.778 263.497 240.733 263.588 240.662L271.328 234.419C271.413 234.365 271.484 234.292 271.535 234.205C271.586 234.118 271.615 234.02 271.62 233.92L271.104 227.41C271.104 227.287 271.068 227.167 271 227.065C270.932 226.963 270.835 226.883 270.722 226.836C270.609 226.789 270.484 226.777 270.364 226.801C270.243 226.825 270.133 226.884 270.046 226.971Z" fill="#263238" stroke="#263238" stroke-linecap="round" stroke-linejoin="round"/>
<path d="M266.631 158.808C266.403 126.563 266.403 94.7089 266.631 63.2444" stroke="#263238" stroke-linecap="round" stroke-linejoin="round"/>
<path d="M266.632 229.594V158.808" stroke="white" stroke-linecap="round" stroke-linejoin="round"/>
<path d="M219.788 210.021C219.959 161.001 219.959 111.981 219.788 63.2703" stroke="#263238" stroke-linecap="round" stroke-linejoin="round"/>
<path d="M212.091 295.487C208.367 293.501 206.312 293.088 205.211 293.071C203.818 295.513 202.235 298.231 200.765 300.725C203.413 301.155 207.369 302.144 209.812 304.328C211.163 305.525 212.357 306.889 213.364 308.387C215.41 307.14 217.664 305.807 220.175 304.5C218.833 301.86 216.167 297.663 212.091 295.487Z" fill="#263238" stroke="#263238" stroke-linecap="round" stroke-linejoin="round"/>
<path d="M212.985 290.302L200.395 305.455L208.092 310.357L223.013 295.427L212.985 290.302Z" fill="#263238" stroke="#263238" stroke-linecap="round" stroke-linejoin="round"/>
<path d="M213.682 292.942L204.205 304.139L207.928 306.315L218.816 295.272L213.682 292.942Z" fill="white" stroke="#263238" stroke-linecap="round" stroke-linejoin="round"/>
<path d="M130.124 308.74C130.21 304.784 128.404 298.996 127.966 297.741C126.959 294.636 124.723 293.355 122.952 294.963C121.541 296.261 122.393 299.177 122.728 300.742C123.198 303.549 123.864 306.319 124.723 309.032C125.11 310.116 125.583 312.171 126.916 312.472C129.264 312.971 130.064 311.217 130.124 308.74Z" fill="white" stroke="#263238" stroke-linecap="round" stroke-linejoin="round"/>
<path d="M125.196 312.06C125.265 309.084 123.881 304.741 123.58 303.795C122.814 301.464 121.137 300.501 119.813 301.714C118.746 302.686 119.391 304.879 119.641 306.057C119.993 308.165 120.493 310.245 121.137 312.283C121.43 313.092 121.782 314.631 122.788 314.863C124.56 315.224 125.153 313.9 125.196 312.06Z" fill="white" stroke="#263238" stroke-linecap="round" stroke-linejoin="round"/>
<path d="M139.868 298.996C139.868 298.996 143.514 303.485 146.593 303.907C147.738 304.01 148.842 304.381 149.818 304.988C150.793 305.596 151.612 306.425 152.209 307.407C153.189 308.955 149.964 314.141 149.818 315.964C149.672 317.787 148.416 318.071 146.739 317.09C145.062 316.11 144.495 313.444 145.019 311.475C145.544 309.505 145.879 308.955 145.441 308.809C143.724 308.357 142.038 307.797 140.393 307.132C139.447 306.573 139.868 298.996 139.868 298.996Z" fill="white" stroke="#263238" stroke-linecap="round" stroke-linejoin="round"/>
<path d="M135.783 307.519C135.869 303.563 134.063 297.775 133.624 296.519C132.618 293.415 130.374 292.133 128.611 293.742C127.2 295.04 128.052 297.956 128.387 299.521C128.857 302.328 129.523 305.098 130.382 307.811C130.769 308.895 131.242 310.95 132.575 311.251C134.923 311.733 135.74 309.978 135.783 307.519Z" fill="white" stroke="#263238" stroke-linecap="round" stroke-linejoin="round"/>
<path d="M142.508 309.101C142.594 305.145 140.788 299.349 140.35 298.102C139.343 294.997 137.099 293.716 135.336 295.324C133.925 296.614 134.777 299.538 135.104 301.103C135.576 303.91 136.246 306.681 137.107 309.394C137.494 310.469 137.967 312.533 139.3 312.834C141.648 313.315 142.448 311.561 142.508 309.101Z" fill="white" stroke="#263238" stroke-linecap="round" stroke-linejoin="round"/>
<path d="M195.493 327.153C196.705 322.775 200.532 317.357 201.375 316.188C203.448 313.307 206.208 313.031 207.516 315.68C208.565 317.813 206.707 320.582 205.847 322.13C204.441 324.935 202.828 327.631 201.023 330.197C200.266 331.177 199.096 333.207 197.583 332.837C194.994 332.192 194.736 329.87 195.493 327.153Z" fill="white" stroke="#263238" stroke-linecap="round" stroke-linejoin="round"/>
<path d="M202.02 329.896C202.932 326.611 205.804 322.543 206.432 321.666C207.997 319.499 210.061 319.292 211.042 321.287C211.833 322.887 210.44 324.96 209.795 326.121C208.742 328.23 207.532 330.257 206.174 332.184C205.598 332.923 204.729 334.445 203.594 334.162C201.642 333.68 201.453 331.96 202.02 329.896Z" fill="white" stroke="#263238" stroke-linecap="round" stroke-linejoin="round"/>
<path d="M191.038 308.19C191.038 308.19 185.758 311.269 182.395 310.168C179.032 309.067 176.925 309.987 175.395 311.174C173.864 312.361 175.506 319.679 175.051 321.752C174.595 323.824 175.825 324.762 177.897 324.53C179.97 324.297 181.44 321.674 181.509 319.241C181.578 316.807 181.466 316.05 181.948 316.11C182.429 316.17 186.557 316.97 187.77 316.815C188.983 316.661 191.038 308.19 191.038 308.19Z" fill="white" stroke="#263238" stroke-linecap="round" stroke-linejoin="round"/>
<path d="M192.5 319.585C193.713 315.207 197.531 309.789 198.374 308.62C200.455 305.739 203.207 305.463 204.514 308.121C205.563 310.245 203.714 313.014 202.846 314.562C201.445 317.368 199.835 320.065 198.03 322.629C197.264 323.618 196.103 325.639 194.59 325.269C191.984 324.624 191.726 322.311 192.5 319.585Z" fill="white" stroke="#263238" stroke-linecap="round" stroke-linejoin="round"/>
<path d="M184.949 317.925C186.162 313.547 189.989 308.129 190.832 306.96C192.904 304.079 195.665 303.804 196.972 306.452C198.021 308.585 196.164 311.354 195.304 312.902C193.897 315.707 192.284 318.403 190.479 320.969C189.722 321.95 188.553 323.979 187.039 323.609C184.45 322.964 184.192 320.642 184.949 317.925Z" fill="white" stroke="#263238" stroke-linecap="round" stroke-linejoin="round"/>
<path d="M100.196 291.669L115.513 333.542L197.651 362.206L192.947 322.208L100.196 291.669Z" fill="#C6FF00" stroke="#263238" stroke-linecap="round" stroke-linejoin="round"/>
<path d="M285.311 267.821H311.412" stroke="#263238" stroke-linecap="round" stroke-linejoin="round"/>
<path d="M266.675 267.821H275.791" stroke="#263238" stroke-linecap="round" stroke-linejoin="round"/>
<path d="M306.854 272.586H311.412" stroke="#263238" stroke-linecap="round" stroke-linejoin="round"/>
<path d="M294.014 272.586H303.13" stroke="#263238" stroke-linecap="round" stroke-linejoin="round"/>
<path d="M266.675 272.586H287.797" stroke="#263238" stroke-linecap="round" stroke-linejoin="round"/>
<path d="M288.218 277.342H311.412" stroke="#263238" stroke-linecap="round" stroke-linejoin="round"/>
<path d="M266.675 277.342H283.247" stroke="#263238" stroke-linecap="round" stroke-linejoin="round"/>
<path d="M301.471 282.106H311.412" stroke="#263238" stroke-linecap="round" stroke-linejoin="round"/>
<path d="M276.617 282.106H297.325" stroke="#263238" stroke-linecap="round" stroke-linejoin="round"/>
<path d="M266.675 282.106H272.059" stroke="#263238" stroke-linecap="round" stroke-linejoin="round"/>
<path d="M285.311 286.268H311.412" stroke="#263238" stroke-linecap="round" stroke-linejoin="round"/>
<path d="M266.675 286.268H275.791" stroke="#263238" stroke-linecap="round" stroke-linejoin="round"/>
<path d="M306.854 291.033H311.412" stroke="#263238" stroke-linecap="round" stroke-linejoin="round"/>
<path d="M294.014 291.033H303.13" stroke="#263238" stroke-linecap="round" stroke-linejoin="round"/>
<path d="M266.675 291.033H287.797" stroke="#263238" stroke-linecap="round" stroke-linejoin="round"/>
<path d="M288.218 295.789H311.412" stroke="#263238" stroke-linecap="round" stroke-linejoin="round"/>
<path d="M266.675 295.789H283.247" stroke="#263238" stroke-linecap="round" stroke-linejoin="round"/>
<path d="M306.854 304.732H311.412" stroke="#263238" stroke-linecap="round" stroke-linejoin="round"/>
<path d="M294.014 304.732H303.13" stroke="#263238" stroke-linecap="round" stroke-linejoin="round"/>
<path d="M266.675 304.732H287.797" stroke="#263238" stroke-linecap="round" stroke-linejoin="round"/>
<path d="M288.218 309.488H311.412" stroke="#263238" stroke-linecap="round" stroke-linejoin="round"/>
<path d="M266.675 309.488H283.247" stroke="#263238" stroke-linecap="round" stroke-linejoin="round"/>
<path d="M301.471 314.253H311.412" stroke="#263238" stroke-linecap="round" stroke-linejoin="round"/>
<path d="M276.617 314.253H297.325" stroke="#263238" stroke-linecap="round" stroke-linejoin="round"/>
<path d="M266.675 314.253H272.059" stroke="#263238" stroke-linecap="round" stroke-linejoin="round"/>
<path d="M285.311 318.415H311.412" stroke="#263238" stroke-linecap="round" stroke-linejoin="round"/>
<path d="M266.675 318.415H275.791" stroke="#263238" stroke-linecap="round" stroke-linejoin="round"/>
<path d="M306.854 323.171H311.412" stroke="#263238" stroke-linecap="round" stroke-linejoin="round"/>
<path d="M294.014 323.171H303.13" stroke="#263238" stroke-linecap="round" stroke-linejoin="round"/>
<path d="M266.675 323.171H287.797" stroke="#263238" stroke-linecap="round" stroke-linejoin="round"/>
<path d="M316.856 331.857L320.21 316.738L323.573 326.258L328.053 285.391L334.211 316.738L341.486 262.429L349.33 325.132L352.684 318.974L354.361 331.298" stroke="#263238" stroke-linecap="round" stroke-linejoin="round"/>
<path d="M270.192 258.628L289.448 239.381L303.612 252.092L315.6 241.196L333.394 254.637L352.649 234.29" stroke="#263238" stroke-linecap="round" stroke-linejoin="round"/>
<path d="M291.985 239.381C291.993 238.867 291.848 238.363 291.568 237.932C291.288 237.501 290.885 237.164 290.412 236.963C289.939 236.763 289.417 236.708 288.912 236.806C288.408 236.904 287.944 237.151 287.581 237.514C287.217 237.878 286.971 238.341 286.873 238.846C286.775 239.35 286.829 239.872 287.03 240.346C287.23 240.819 287.568 241.221 287.999 241.501C288.429 241.782 288.934 241.927 289.448 241.918C290.117 241.907 290.756 241.636 291.23 241.163C291.703 240.689 291.974 240.051 291.985 239.381Z" fill="#C6FF00" stroke="#263238" stroke-linecap="round" stroke-linejoin="round"/>
<path d="M318.137 241.196C318.137 240.684 317.985 240.183 317.699 239.758C317.414 239.333 317.008 239.002 316.534 238.808C316.061 238.614 315.54 238.566 315.038 238.669C314.536 238.772 314.077 239.022 313.718 239.387C313.359 239.752 313.116 240.216 313.022 240.719C312.927 241.222 312.984 241.742 313.186 242.213C313.388 242.684 313.726 243.084 314.155 243.362C314.585 243.64 315.088 243.784 315.6 243.776C316.277 243.764 316.922 243.488 317.397 243.005C317.872 242.522 318.137 241.872 318.137 241.196Z" fill="#C6FF00" stroke="#263238" stroke-linecap="round" stroke-linejoin="round"/>
<path d="M333.394 257.183C334.8 257.183 335.939 256.043 335.939 254.637C335.939 253.232 334.8 252.092 333.394 252.092C331.988 252.092 330.848 253.232 330.848 254.637C330.848 256.043 331.988 257.183 333.394 257.183Z" fill="#C6FF00" stroke="#263238" stroke-linecap="round" stroke-linejoin="round"/>
<path d="M354.834 234.29C354.834 233.78 354.682 233.281 354.399 232.857C354.115 232.432 353.712 232.102 353.241 231.906C352.769 231.711 352.251 231.66 351.75 231.76C351.25 231.859 350.79 232.105 350.429 232.466C350.068 232.826 349.823 233.286 349.723 233.787C349.624 234.287 349.675 234.806 349.87 235.277C350.065 235.749 350.396 236.152 350.82 236.435C351.244 236.719 351.743 236.87 352.254 236.87C352.938 236.87 353.594 236.598 354.078 236.114C354.562 235.63 354.834 234.974 354.834 234.29Z" fill="#C6FF00" stroke="#263238" stroke-linecap="round" stroke-linejoin="round"/>
<path d="M270.192 261.174C271.598 261.174 272.738 260.034 272.738 258.628C272.738 257.222 271.598 256.082 270.192 256.082C268.786 256.082 267.647 257.222 267.647 258.628C267.647 260.034 268.786 261.174 270.192 261.174Z" fill="#C6FF00" stroke="#263238" stroke-linecap="round" stroke-linejoin="round"/>
<path d="M303.612 253.906C305.018 253.906 306.158 252.767 306.158 251.361C306.158 249.955 305.018 248.815 303.612 248.815C302.206 248.815 301.066 249.955 301.066 251.361C301.066 252.767 302.206 253.906 303.612 253.906Z" fill="#C6FF00" stroke="#263238" stroke-linecap="round" stroke-linejoin="round"/>
<path d="M132.257 175.509L139.739 171.192" stroke="#263238" stroke-linecap="round" stroke-linejoin="round"/>
<path d="M95.7758 171.192V196.57L117.757 209.264L139.739 196.57V171.192L117.757 158.498L95.7758 171.192Z" stroke="#263238" stroke-linecap="round" stroke-linejoin="round"/>
<path d="M103.249 175.509V192.253L117.757 200.63L132.257 192.253V175.509L117.757 167.133L103.249 175.509Z" stroke="#263238" stroke-linecap="round" stroke-linejoin="round"/>
<path d="M117.757 158.498V139.647" stroke="#263238" stroke-linecap="round" stroke-linejoin="round"/>
<path d="M117.757 142.416C119.804 142.416 121.464 140.757 121.464 138.71C121.464 136.662 119.804 135.003 117.757 135.003C115.71 135.003 114.051 136.662 114.051 138.71C114.051 140.757 115.71 142.416 117.757 142.416Z" fill="#C6FF00" stroke="#263238" stroke-linecap="round" stroke-linejoin="round"/>
<path d="M117.757 208.731V227.582" stroke="#263238" stroke-linecap="round" stroke-linejoin="round"/>
<path d="M114.042 228.519C114.04 229.255 114.257 229.974 114.664 230.586C115.071 231.198 115.651 231.675 116.33 231.958C117.008 232.24 117.756 232.315 118.477 232.173C119.198 232.03 119.861 231.677 120.381 231.158C120.902 230.639 121.256 229.977 121.4 229.256C121.545 228.535 121.471 227.788 121.191 227.108C120.91 226.429 120.433 225.848 119.822 225.439C119.211 225.031 118.492 224.813 117.757 224.813C116.773 224.813 115.83 225.203 115.133 225.898C114.437 226.593 114.044 227.536 114.042 228.519Z" fill="#C6FF00" stroke="#263238" stroke-linecap="round" stroke-linejoin="round"/>
<path d="M103.249 175.509L95.7758 171.192" stroke="#263238" stroke-linecap="round" stroke-linejoin="round"/>
<path d="M103.885 192.382L118.385 184.006L132.257 192.253" stroke="#263238" stroke-linecap="round" stroke-linejoin="round"/>
<path d="M118.385 184.006V167.133" stroke="#263238" stroke-linecap="round" stroke-linejoin="round"/>
<path d="M162.925 101.807H172.866" stroke="#263238" stroke-linecap="round" stroke-linejoin="round"/>
<path d="M138.071 101.807H158.788" stroke="#263238" stroke-linecap="round" stroke-linejoin="round"/>
<path d="M128.129 101.807H133.513" stroke="#263238" stroke-linecap="round" stroke-linejoin="round"/>
<path d="M146.774 105.969H172.866" stroke="#263238" stroke-linecap="round" stroke-linejoin="round"/>
<path d="M128.129 105.969H137.245" stroke="#263238" stroke-linecap="round" stroke-linejoin="round"/>
<path d="M168.317 110.734H172.866" stroke="#263238" stroke-linecap="round" stroke-linejoin="round"/>
<path d="M155.468 110.734H164.584" stroke="#263238" stroke-linecap="round" stroke-linejoin="round"/>
<path d="M128.129 110.734H149.259" stroke="#263238" stroke-linecap="round" stroke-linejoin="round"/>
<path d="M149.672 115.49H172.866" stroke="#263238" stroke-linecap="round" stroke-linejoin="round"/>
<path d="M128.129 115.49H144.701" stroke="#263238" stroke-linecap="round" stroke-linejoin="round"/>
<path d="M162.925 120.254H172.866" stroke="#263238" stroke-linecap="round" stroke-linejoin="round"/>
<path d="M138.071 120.254H158.788" stroke="#263238" stroke-linecap="round" stroke-linejoin="round"/>
<path d="M128.129 120.254H133.513" stroke="#263238" stroke-linecap="round" stroke-linejoin="round"/>
<path d="M146.774 124.416H172.866" stroke="#263238" stroke-linecap="round" stroke-linejoin="round"/>
<path d="M128.129 124.416H137.245" stroke="#263238" stroke-linecap="round" stroke-linejoin="round"/>
<path d="M168.317 129.172H172.866" stroke="#263238" stroke-linecap="round" stroke-linejoin="round"/>
<path d="M155.468 129.172H164.584" stroke="#263238" stroke-linecap="round" stroke-linejoin="round"/>
<path d="M128.129 129.172H149.259" stroke="#263238" stroke-linecap="round" stroke-linejoin="round"/>
<path d="M149.672 133.937H172.866" stroke="#263238" stroke-linecap="round" stroke-linejoin="round"/>
<path d="M128.129 133.937H144.701" stroke="#263238" stroke-linecap="round" stroke-linejoin="round"/>
<path d="M162.925 138.692H172.866" stroke="#263238" stroke-linecap="round" stroke-linejoin="round"/>
<path d="M138.071 138.692H158.788" stroke="#263238" stroke-linecap="round" stroke-linejoin="round"/>
<path d="M128.129 138.692H133.513" stroke="#263238" stroke-linecap="round" stroke-linejoin="round"/>
<path d="M146.774 142.863H172.866" stroke="#263238" stroke-linecap="round" stroke-linejoin="round"/>
<path d="M128.129 142.863H137.245" stroke="#263238" stroke-linecap="round" stroke-linejoin="round"/>
<path d="M172.866 147.619H168.317" stroke="#263238" stroke-linecap="round" stroke-linejoin="round"/>
<path d="M155.468 147.619H164.584" stroke="#263238" stroke-linecap="round" stroke-linejoin="round"/>
<path d="M128.129 147.619H149.259" stroke="#263238" stroke-linecap="round" stroke-linejoin="round"/>
<path d="M149.672 152.384H172.866" stroke="#263238" stroke-linecap="round" stroke-linejoin="round"/>
<path d="M128.129 152.384H144.701" stroke="#263238" stroke-linecap="round" stroke-linejoin="round"/>
<path d="M162.925 157.139H172.866" stroke="#263238" stroke-linecap="round" stroke-linejoin="round"/>
<path d="M138.071 157.139H158.788" stroke="#263238" stroke-linecap="round" stroke-linejoin="round"/>
<path d="M128.129 157.139H133.513" stroke="#263238" stroke-linecap="round" stroke-linejoin="round"/>
</svg>
