<svg width="23" height="21" viewBox="0 0 23 21" fill="none" xmlns="http://www.w3.org/2000/svg">
<path d="M22.1079 10.3292L12.0518 0.280376C11.9793 0.207827 11.8933 0.15027 11.7987 0.110999C11.704 0.0717277 11.6025 0.0515137 11.5 0.0515137C11.3975 0.0515137 11.296 0.0717277 11.2013 0.110999C11.1067 0.15027 11.0206 0.207827 10.9482 0.280376L0.89209 10.3292C0.599121 10.6222 0.433105 11.0201 0.433105 11.4352C0.433105 12.297 1.13379 12.9977 1.99561 12.9977H3.05518V20.1681C3.05518 20.6002 3.4043 20.9493 3.83643 20.9493H9.9375V15.4806H12.6719V20.9493H19.1636C19.5957 20.9493 19.9448 20.6002 19.9448 20.1681V12.9977H21.0044C21.4194 12.9977 21.8174 12.8341 22.1103 12.5387C22.7183 11.9283 22.7183 10.9396 22.1079 10.3292V10.3292Z" fill="#4F4E4E"/>
</svg>
