<svg width="21" height="21" viewBox="0 0 21 21" fill="none" xmlns="http://www.w3.org/2000/svg">
<path d="M4.49998 13C5.37463 12.9974 6.2162 12.6653 6.85698 12.07L13.117 15.647C12.9072 16.4666 12.9997 17.3343 13.3774 18.0913C13.7552 18.8483 14.3929 19.4439 15.1739 19.7692C15.9549 20.0944 16.827 20.1274 17.6304 19.8623C18.4337 19.5971 19.1147 19.0515 19.5487 18.3252C19.9827 17.599 20.1406 16.7408 19.9935 15.9076C19.8464 15.0745 19.4041 14.3222 18.7477 13.7885C18.0913 13.2548 17.2646 12.9753 16.419 13.0013C15.5734 13.0273 14.7654 13.357 14.143 13.93L7.88298 10.353C7.94898 10.103 7.98498 9.84396 7.99098 9.58496L14.141 6.06996C14.7332 6.60874 15.4926 6.92747 16.2919 6.97268C17.0912 7.01789 17.8818 6.78684 18.5309 6.31828C19.1801 5.84972 19.6484 5.17217 19.8572 4.39929C20.066 3.6264 20.0027 2.80522 19.6778 2.0735C19.3529 1.34178 18.7863 0.744037 18.073 0.38056C17.3597 0.0170831 16.543 -0.0900175 15.7601 0.077226C14.9772 0.244469 14.2756 0.675882 13.773 1.29909C13.2705 1.92229 12.9975 2.69937 13 3.49996C13.004 3.78796 13.043 4.07497 13.117 4.35296L7.43297 7.59997C7.10335 7.09003 6.64674 6.67461 6.10799 6.39454C5.56925 6.11446 4.96691 5.97936 4.36015 6.00251C3.7534 6.02566 3.1631 6.20627 2.64726 6.52658C2.13142 6.84689 1.70779 7.29589 1.41798 7.82946C1.12817 8.36303 0.982159 8.96282 0.99429 9.56989C1.00642 10.177 1.17628 10.7704 1.48717 11.292C1.79806 11.8136 2.2393 12.2453 2.76752 12.5447C3.29574 12.8442 3.89278 13.0011 4.49998 13Z" fill="#4F4E4E"/>
</svg>
